<svg width="50" height="21" viewBox="0 0 50 21" fill="none" xmlns="http://www.w3.org/2000/svg">
<g clip-path="url(#clip0_835_1594)">
<path d="M0 0V8.93968H5.48433C5.48763 8.03492 5.36891 5.93968 4.01349 3.73333C2.66797 1.53968 0.824464 0.434921 0 0Z" fill="#EA4232"/>
<path d="M0 10.7676C0.0659571 11.7136 0.283616 13.1073 0.99925 14.6342C1.34882 15.3771 3.01754 18.7073 6.71444 20.1612C8.51177 20.8692 10.3751 20.9676 10.8565 20.9898C11.1731 21.0057 11.2886 20.9993 13.63 20.9866C14.5666 20.9803 15.5032 20.9771 16.4398 20.9739C17.693 20.9676 19.5398 20.9612 22.0033 20.9739C21.5053 20.1041 20.5984 18.7962 19.0451 17.8057C15.1042 15.2946 11.0379 17.4057 7.839 14.939C7.01454 14.3041 5.93614 13.1231 5.35242 10.7708H0V10.7676Z" fill="#EA4232"/>
</g>
<rect x="24" width="1" height="21" fill="#EA4232"/>
<path d="M28.6443 9V4.41818H29.3483V9H28.6443ZM29.0023 3.65455C28.8651 3.65455 28.7467 3.60781 28.6473 3.51435C28.5499 3.42088 28.5011 3.30852 28.5011 3.17727C28.5011 3.04602 28.5499 2.93366 28.6473 2.8402C28.7467 2.74673 28.8651 2.7 29.0023 2.7C29.1395 2.7 29.2568 2.74673 29.3543 2.8402C29.4537 2.93366 29.5034 3.04602 29.5034 3.17727C29.5034 3.30852 29.4537 3.42088 29.3543 3.51435C29.2568 3.60781 29.1395 3.65455 29.0023 3.65455ZM30.399 3.54716V2.89091H34.9809V3.54716H33.0598V9H32.3201V3.54716H30.399ZM28.4057 13.5472V12.8909H32.9875V13.5472H31.0665V19H30.3267V13.5472H28.4057ZM35.2903 19.0955C34.8489 19.0955 34.468 18.998 34.1479 18.8031C33.8297 18.6062 33.5841 18.3318 33.4111 17.9798C33.2401 17.6259 33.1545 17.2142 33.1545 16.7449C33.1545 16.2756 33.2401 15.8619 33.4111 15.504C33.5841 15.144 33.8247 14.8636 34.133 14.6628C34.4432 14.4599 34.8051 14.3585 35.2188 14.3585C35.4574 14.3585 35.693 14.3983 35.9257 14.4778C36.1584 14.5574 36.3702 14.6866 36.5611 14.8656C36.752 15.0426 36.9041 15.2773 37.0175 15.5696C37.1308 15.8619 37.1875 16.2219 37.1875 16.6494V16.9477H33.6557V16.3392H36.4716C36.4716 16.0807 36.4199 15.85 36.3165 15.6472C36.2151 15.4443 36.0699 15.2842 35.881 15.1669C35.694 15.0496 35.4733 14.9909 35.2188 14.9909C34.9384 14.9909 34.6957 15.0605 34.4909 15.1997C34.2881 15.3369 34.132 15.5159 34.0226 15.7366C33.9132 15.9574 33.8585 16.194 33.8585 16.4466V16.8523C33.8585 17.1983 33.9182 17.4916 34.0375 17.7322C34.1588 17.9709 34.3268 18.1528 34.5416 18.2781C34.7564 18.4014 35.006 18.4631 35.2903 18.4631C35.4753 18.4631 35.6423 18.4372 35.7915 18.3855C35.9426 18.3318 36.0729 18.2523 36.1822 18.1469C36.2916 18.0395 36.3761 17.9062 36.4358 17.7472L37.1159 17.9381C37.0443 18.1687 36.924 18.3716 36.755 18.5466C36.5859 18.7196 36.3771 18.8548 36.1286 18.9523C35.88 19.0477 35.6006 19.0955 35.2903 19.0955ZM39.6067 19.1074C39.3163 19.1074 39.0528 19.0527 38.8162 18.9433C38.5795 18.832 38.3916 18.6719 38.2524 18.4631C38.1132 18.2523 38.0436 17.9977 38.0436 17.6994C38.0436 17.4369 38.0953 17.2241 38.1987 17.0611C38.3021 16.896 38.4403 16.7668 38.6134 16.6733C38.7864 16.5798 38.9773 16.5102 39.1861 16.4645C39.3969 16.4168 39.6087 16.379 39.8214 16.3511C40.0999 16.3153 40.3256 16.2885 40.4986 16.2706C40.6736 16.2507 40.8009 16.2179 40.8804 16.1722C40.9619 16.1264 41.0027 16.0469 41.0027 15.9335V15.9097C41.0027 15.6153 40.9222 15.3866 40.7611 15.2236C40.602 15.0605 40.3604 14.979 40.0362 14.979C39.7001 14.979 39.4366 15.0526 39.2457 15.1997C39.0548 15.3469 38.9206 15.504 38.843 15.671L38.1749 15.4324C38.2942 15.154 38.4533 14.9372 38.6521 14.7821C38.853 14.625 39.0717 14.5156 39.3084 14.454C39.547 14.3903 39.7817 14.3585 40.0124 14.3585C40.1595 14.3585 40.3286 14.3764 40.5195 14.4122C40.7124 14.446 40.8983 14.5166 41.0773 14.624C41.2582 14.7314 41.4084 14.8935 41.5277 15.1102C41.647 15.327 41.7067 15.6173 41.7067 15.9812V19H41.0027V18.3795H40.9669C40.9192 18.479 40.8396 18.5854 40.7283 18.6987C40.6169 18.8121 40.4688 18.9085 40.2838 18.9881C40.0989 19.0676 39.8732 19.1074 39.6067 19.1074ZM39.7141 18.475C39.9925 18.475 40.2271 18.4203 40.418 18.3109C40.6109 18.2016 40.7561 18.0604 40.8536 17.8874C40.953 17.7143 41.0027 17.5324 41.0027 17.3415V16.6972C40.9729 16.733 40.9072 16.7658 40.8058 16.7956C40.7064 16.8234 40.5911 16.8483 40.4598 16.8702C40.3305 16.8901 40.2043 16.908 40.081 16.9239C39.9597 16.9378 39.8612 16.9497 39.7857 16.9597C39.6027 16.9835 39.4317 17.0223 39.2726 17.076C39.1155 17.1277 38.9882 17.2062 38.8908 17.3116C38.7953 17.4151 38.7476 17.5562 38.7476 17.7352C38.7476 17.9798 38.8381 18.1648 39.019 18.2901C39.202 18.4134 39.4337 18.475 39.7141 18.475ZM42.9916 19V14.4182H43.6717V15.1341H43.7314C43.8268 14.8895 43.9809 14.6996 44.1937 14.5643C44.4065 14.4271 44.662 14.3585 44.9603 14.3585C45.2626 14.3585 45.5142 14.4271 45.715 14.5643C45.9179 14.6996 46.076 14.8895 46.1893 15.1341H46.237C46.3544 14.8974 46.5304 14.7095 46.765 14.5703C46.9997 14.4291 47.2811 14.3585 47.6092 14.3585C48.0189 14.3585 48.3539 14.4868 48.6145 14.7433C48.875 14.9979 49.0052 15.3946 49.0052 15.9335V19H48.3012V15.9335C48.3012 15.5955 48.2088 15.3538 48.0238 15.2087C47.8389 15.0635 47.6211 14.9909 47.3706 14.9909C47.0484 14.9909 46.7988 15.0884 46.6218 15.2832C46.4449 15.4761 46.3564 15.7207 46.3564 16.017V19H45.6404V15.8619C45.6404 15.6014 45.5559 15.3916 45.3869 15.2325C45.2179 15.0714 45.0001 14.9909 44.7336 14.9909C44.5507 14.9909 44.3797 15.0396 44.2206 15.1371C44.0635 15.2345 43.9362 15.3697 43.8387 15.5428C43.7433 15.7138 43.6956 15.9116 43.6956 16.1364V19H42.9916Z" fill="#EA4232"/>
<circle cx="29" cy="3" r="1" fill="#5B8E3E"/>
<defs>
<clipPath id="clip0_835_1594">
<rect width="22" height="21" fill="white"/>
</clipPath>
</defs>
</svg>
