<svg width="55" height="25" viewBox="0 0 55 25" fill="none" xmlns="http://www.w3.org/2000/svg">
<rect width="55" height="25" fill="#EA4232"/>
<g clip-path="url(#clip0_839_1612)">
<path d="M3 2V10.9397H8.48433C8.48763 10.0349 8.36891 7.93968 7.01349 5.73333C5.66797 3.53968 3.82446 2.43492 3 2Z" fill="white"/>
<path d="M3 12.7676C3.06596 13.7136 3.28362 15.1073 3.99925 16.6342C4.34882 17.3771 6.01754 20.7073 9.71444 22.1612C11.5118 22.8692 13.3751 22.9676 13.8565 22.9898C14.1731 23.0057 14.2886 22.9993 16.63 22.9866C17.5666 22.9803 18.5032 22.9771 19.4398 22.9739C20.693 22.9676 22.5398 22.9612 25.0033 22.9739C24.5053 22.1041 23.5984 20.7962 22.0451 19.8057C18.1042 17.2946 14.0379 19.4057 10.839 16.939C10.0145 16.3041 8.93614 15.1231 8.35242 12.7708H3V12.7676Z" fill="white"/>
</g>
<rect x="27" y="2" width="1" height="21" fill="white"/>
<path d="M31.6443 11V6.41818H32.3483V11H31.6443ZM32.0023 5.65455C31.8651 5.65455 31.7467 5.60781 31.6473 5.51435C31.5499 5.42088 31.5011 5.30852 31.5011 5.17727C31.5011 5.04602 31.5499 4.93366 31.6473 4.8402C31.7467 4.74673 31.8651 4.7 32.0023 4.7C32.1395 4.7 32.2568 4.74673 32.3543 4.8402C32.4537 4.93366 32.5034 5.04602 32.5034 5.17727C32.5034 5.30852 32.4537 5.42088 32.3543 5.51435C32.2568 5.60781 32.1395 5.65455 32.0023 5.65455ZM33.399 5.54716V4.89091H37.9809V5.54716H36.0598V11H35.3201V5.54716H33.399ZM31.4057 15.5472V14.8909H35.9875V15.5472H34.0665V21H33.3267V15.5472H31.4057ZM38.2903 21.0955C37.8489 21.0955 37.468 20.998 37.1479 20.8031C36.8297 20.6062 36.5841 20.3318 36.4111 19.9798C36.2401 19.6259 36.1545 19.2142 36.1545 18.7449C36.1545 18.2756 36.2401 17.8619 36.4111 17.504C36.5841 17.144 36.8247 16.8636 37.133 16.6628C37.4432 16.4599 37.8051 16.3585 38.2188 16.3585C38.4574 16.3585 38.693 16.3983 38.9257 16.4778C39.1584 16.5574 39.3702 16.6866 39.5611 16.8656C39.752 17.0426 39.9041 17.2773 40.0175 17.5696C40.1308 17.8619 40.1875 18.2219 40.1875 18.6494V18.9477H36.6557V18.3392H39.4716C39.4716 18.0807 39.4199 17.85 39.3165 17.6472C39.2151 17.4443 39.0699 17.2842 38.881 17.1669C38.694 17.0496 38.4733 16.9909 38.2188 16.9909C37.9384 16.9909 37.6957 17.0605 37.4909 17.1997C37.2881 17.3369 37.132 17.5159 37.0226 17.7366C36.9132 17.9574 36.8585 18.194 36.8585 18.4466V18.8523C36.8585 19.1983 36.9182 19.4916 37.0375 19.7322C37.1588 19.9709 37.3268 20.1528 37.5416 20.2781C37.7564 20.4014 38.006 20.4631 38.2903 20.4631C38.4753 20.4631 38.6423 20.4372 38.7915 20.3855C38.9426 20.3318 39.0729 20.2523 39.1822 20.1469C39.2916 20.0395 39.3761 19.9062 39.4358 19.7472L40.1159 19.9381C40.0443 20.1687 39.924 20.3716 39.755 20.5466C39.5859 20.7196 39.3771 20.8548 39.1286 20.9523C38.88 21.0477 38.6006 21.0955 38.2903 21.0955ZM42.6067 21.1074C42.3163 21.1074 42.0528 21.0527 41.8162 20.9433C41.5795 20.832 41.3916 20.6719 41.2524 20.4631C41.1132 20.2523 41.0436 19.9977 41.0436 19.6994C41.0436 19.4369 41.0953 19.2241 41.1987 19.0611C41.3021 18.896 41.4403 18.7668 41.6134 18.6733C41.7864 18.5798 41.9773 18.5102 42.1861 18.4645C42.3969 18.4168 42.6087 18.379 42.8214 18.3511C43.0999 18.3153 43.3256 18.2885 43.4986 18.2706C43.6736 18.2507 43.8009 18.2179 43.8804 18.1722C43.9619 18.1264 44.0027 18.0469 44.0027 17.9335V17.9097C44.0027 17.6153 43.9222 17.3866 43.7611 17.2236C43.602 17.0605 43.3604 16.979 43.0362 16.979C42.7001 16.979 42.4366 17.0526 42.2457 17.1997C42.0548 17.3469 41.9206 17.504 41.843 17.671L41.1749 17.4324C41.2942 17.154 41.4533 16.9372 41.6521 16.7821C41.853 16.625 42.0717 16.5156 42.3084 16.454C42.547 16.3903 42.7817 16.3585 43.0124 16.3585C43.1595 16.3585 43.3286 16.3764 43.5195 16.4122C43.7124 16.446 43.8983 16.5166 44.0773 16.624C44.2582 16.7314 44.4084 16.8935 44.5277 17.1102C44.647 17.327 44.7067 17.6173 44.7067 17.9812V21H44.0027V20.3795H43.9669C43.9192 20.479 43.8396 20.5854 43.7283 20.6987C43.6169 20.8121 43.4688 20.9085 43.2838 20.9881C43.0989 21.0676 42.8732 21.1074 42.6067 21.1074ZM42.7141 20.475C42.9925 20.475 43.2271 20.4203 43.418 20.3109C43.6109 20.2016 43.7561 20.0604 43.8536 19.8874C43.953 19.7143 44.0027 19.5324 44.0027 19.3415V18.6972C43.9729 18.733 43.9072 18.7658 43.8058 18.7956C43.7064 18.8234 43.5911 18.8483 43.4598 18.8702C43.3305 18.8901 43.2043 18.908 43.081 18.9239C42.9597 18.9378 42.8612 18.9497 42.7857 18.9597C42.6027 18.9835 42.4317 19.0223 42.2726 19.076C42.1155 19.1277 41.9882 19.2062 41.8908 19.3116C41.7953 19.4151 41.7476 19.5562 41.7476 19.7352C41.7476 19.9798 41.8381 20.1648 42.019 20.2901C42.202 20.4134 42.4337 20.475 42.7141 20.475ZM45.9916 21V16.4182H46.6717V17.1341H46.7314C46.8268 16.8895 46.9809 16.6996 47.1937 16.5643C47.4065 16.4271 47.662 16.3585 47.9603 16.3585C48.2626 16.3585 48.5142 16.4271 48.715 16.5643C48.9179 16.6996 49.076 16.8895 49.1893 17.1341H49.237C49.3544 16.8974 49.5304 16.7095 49.765 16.5703C49.9997 16.4291 50.2811 16.3585 50.6092 16.3585C51.0189 16.3585 51.3539 16.4868 51.6145 16.7433C51.875 16.9979 52.0052 17.3946 52.0052 17.9335V21H51.3012V17.9335C51.3012 17.5955 51.2088 17.3538 51.0238 17.2087C50.8389 17.0635 50.6211 16.9909 50.3706 16.9909C50.0484 16.9909 49.7988 17.0884 49.6218 17.2832C49.4449 17.4761 49.3564 17.7207 49.3564 18.017V21H48.6404V17.8619C48.6404 17.6014 48.5559 17.3916 48.3869 17.2325C48.2179 17.0714 48.0001 16.9909 47.7336 16.9909C47.5507 16.9909 47.3797 17.0396 47.2206 17.1371C47.0635 17.2345 46.9362 17.3697 46.8387 17.5428C46.7433 17.7138 46.6956 17.9116 46.6956 18.1364V21H45.9916Z" fill="white"/>
<defs>
<clipPath id="clip0_839_1612">
<rect width="22" height="21" fill="white" transform="translate(3 2)"/>
</clipPath>
</defs>
</svg>
