<?xml version="1.0" encoding="utf-8"?>
<!-- Generator: Adobe Illustrator 27.5.0, SVG Export Plug-In . SVG Version: 6.00 Build 0)  -->
<svg version="1.1" xmlns="http://www.w3.org/2000/svg" xmlns:xlink="http://www.w3.org/1999/xlink" x="0px" y="0px"
	 viewBox="0 0 500 500" style="enable-background:new 0 0 500 500;" xml:space="preserve">
<g id="BACKGROUND">
	<radialGradient id="SVGID_1_" cx="250" cy="250" r="351.205" gradientUnits="userSpaceOnUse">
		<stop  offset="0" style="stop-color:#0B3856"/>
		<stop  offset="0.6276" style="stop-color:#082F4A"/>
		<stop  offset="1" style="stop-color:#041C2E"/>
	</radialGradient>
	<rect style="fill:url(#SVGID_1_);" width="500" height="500"/>
</g>
<g id="OBJECTS">
	<g>
		<g>
			
				<linearGradient id="SVGID_00000168095877407531572020000017895124299586132633_" gradientUnits="userSpaceOnUse" x1="154.7213" y1="304.2751" x2="305.8689" y2="175.0865">
				<stop  offset="0" style="stop-color:#BF7F00"/>
				<stop  offset="1" style="stop-color:#F8E885"/>
			</linearGradient>
			<path style="fill:url(#SVGID_00000168095877407531572020000017895124299586132633_);" d="M176.53,302.906h146.964
				c21.616-19.86,35.175-48.352,35.175-80.02c0-60.01-48.647-108.657-108.657-108.657c-60.009,0-108.657,48.647-108.657,108.657
				C141.355,254.554,154.913,283.046,176.53,302.906z"/>
			
				<linearGradient id="SVGID_00000078730688799275236810000004231138558586300577_" gradientUnits="userSpaceOnUse" x1="250.0115" y1="67.2787" x2="250.0115" y2="297.9377">
				<stop  offset="0" style="stop-color:#BF7F00"/>
				<stop  offset="1" style="stop-color:#F8E885"/>
			</linearGradient>
			<path style="fill:url(#SVGID_00000078730688799275236810000004231138558586300577_);" d="M186.151,296.97h127.722
				c21.319-18.107,34.851-45.104,34.851-75.265c0-54.517-44.195-98.712-98.712-98.712S151.3,167.188,151.3,221.705
				C151.3,251.867,164.832,278.864,186.151,296.97z"/>
		</g>
		<g>
			
				<linearGradient id="SVGID_00000149360404274019947130000010113276817598966151_" gradientUnits="userSpaceOnUse" x1="106.1989" y1="281.7403" x2="242.8518" y2="312.1431">
				<stop  offset="0" style="stop-color:#C05390"/>
				<stop  offset="0.5158" style="stop-color:#9C3068"/>
				<stop  offset="1" style="stop-color:#6E2249"/>
			</linearGradient>
			<path style="fill:url(#SVGID_00000149360404274019947130000010113276817598966151_);" d="M119.303,307.424l21.264-17.682
				c0,0,48.442-22.354,86.565-0.818c11.775,6.652,17.489,12.003,22.838,23.835v17.577c0,0-14.476-30.028-49.609-30.028
				C165.227,300.307,119.303,307.424,119.303,307.424z"/>
			
				<linearGradient id="SVGID_00000087395501843041488180000010463332111917596562_" gradientUnits="userSpaceOnUse" x1="106.9929" y1="302.7617" x2="229.5793" y2="312.3637">
				<stop  offset="0" style="stop-color:#FE96D7"/>
				<stop  offset="1" style="stop-color:#A72D6F"/>
			</linearGradient>
			<path style="fill:url(#SVGID_00000087395501843041488180000010463332111917596562_);" d="M118.023,308.35
				c-3.587,4.439,0.116,11.174,5.24,9.73c36.282-10.232,65.634-22.097,101.357-7.82c14.191,5.672,25.35,20.075,25.35,20.075
				s-8.427-21.933-24.382-29.927c-29.564-14.812-75.858-3.675-106.285,7.016C118.811,307.597,118.374,307.915,118.023,308.35
				L118.023,308.35z"/>
			<g>
				
					<linearGradient id="SVGID_00000018209288003503518360000017768134429182613660_" gradientUnits="userSpaceOnUse" x1="106.6421" y1="290.5024" x2="253.7838" y2="290.5024">
					<stop  offset="0" style="stop-color:#F4F4F2"/>
					<stop  offset="0.8224" style="stop-color:#6E7276"/>
					<stop  offset="1" style="stop-color:#444749"/>
				</linearGradient>
				<path style="fill:url(#SVGID_00000018209288003503518360000017768134429182613660_);" d="M249.97,304.549
					c-1.554-17.205-13.889-30.957-30.004-35.46c-26.513-7.547-53.876,1.232-79.848,8.45l-20.302,21.126
					c33.119-11.661,73.913-24.061,107.316-7.688c8.535,4.435,16.212,11.217,20.888,19.717c0.766,1.458,1.393,2.843,1.95,4.117
					V304.549z"/>
			</g>
			
				<linearGradient id="SVGID_00000021077029951867417410000007596977013028085917_" gradientUnits="userSpaceOnUse" x1="154.5787" y1="247.7896" x2="261.1119" y2="271.1472">
				<stop  offset="0" style="stop-color:#D3D5D5"/>
				<stop  offset="0.4789" style="stop-color:#FFFFFD"/>
				<stop  offset="0.8645" style="stop-color:#979B9F"/>
			</linearGradient>
			<path style="fill:url(#SVGID_00000021077029951867417410000007596977013028085917_);" d="M249.97,238.622
				c0,0,0.659-9.813-13.103-18.926c-11.91-7.887-30.558-3.679-49.538,5.062l-67.536,63.152
				c33.119-11.661,73.913-24.061,107.316-7.688c8.535,4.435,16.212,11.217,20.888,19.717c0.766,1.458,1.416,2.843,1.973,4.117
				V238.622z"/>
			
				<linearGradient id="SVGID_00000084517511153072156290000017883947184166394252_" gradientUnits="userSpaceOnUse" x1="243.7499" y1="281.7403" x2="380.4028" y2="312.1431" gradientTransform="matrix(-1 0 0 1 637.5375 0)">
				<stop  offset="0" style="stop-color:#C05390"/>
				<stop  offset="0.5158" style="stop-color:#9C3068"/>
				<stop  offset="1" style="stop-color:#6E2249"/>
			</linearGradient>
			<path style="fill:url(#SVGID_00000084517511153072156290000017883947184166394252_);" d="M380.683,307.424l-21.263-17.682
				c0,0-48.442-22.354-86.565-0.818c-11.775,6.652-17.489,12.003-22.838,23.835v17.577c0,0,14.476-30.028,49.609-30.028
				C334.76,300.307,380.683,307.424,380.683,307.424z"/>
			
				<linearGradient id="SVGID_00000064345906311943420660000004949971131864648618_" gradientUnits="userSpaceOnUse" x1="244.5439" y1="302.7617" x2="367.1303" y2="312.3637" gradientTransform="matrix(-1 0 0 1 637.5375 0)">
				<stop  offset="0" style="stop-color:#FE96D7"/>
				<stop  offset="1" style="stop-color:#A72D6F"/>
			</linearGradient>
			<path style="fill:url(#SVGID_00000064345906311943420660000004949971131864648618_);" d="M381.964,308.35
				c3.587,4.439-0.116,11.174-5.24,9.73c-36.282-10.232-65.635-22.097-101.357-7.82c-14.191,5.672-25.35,20.075-25.35,20.075
				s8.427-21.933,24.382-29.927c29.564-14.812,75.858-3.675,106.285,7.016C381.175,307.597,381.612,307.915,381.964,308.35
				L381.964,308.35z"/>
			<g>
				
					<linearGradient id="SVGID_00000114073054122672072150000005098718438934616200_" gradientUnits="userSpaceOnUse" x1="244.1931" y1="290.5024" x2="391.3348" y2="290.5024" gradientTransform="matrix(-1 0 0 1 637.5375 0)">
					<stop  offset="0" style="stop-color:#F4F4F2"/>
					<stop  offset="0.8224" style="stop-color:#6E7276"/>
					<stop  offset="1" style="stop-color:#444749"/>
				</linearGradient>
				<path style="fill:url(#SVGID_00000114073054122672072150000005098718438934616200_);" d="M250.017,304.549
					c1.555-17.205,13.889-30.957,30.004-35.46c26.513-7.547,53.876,1.232,79.848,8.45l20.302,21.126
					c-33.119-11.661-73.913-24.061-107.316-7.688c-8.535,4.435-16.212,11.217-20.888,19.717c-0.766,1.458-1.393,2.843-1.95,4.117
					V304.549z"/>
			</g>
			
				<linearGradient id="SVGID_00000085935113115918171090000010691398582930115236_" gradientUnits="userSpaceOnUse" x1="292.1297" y1="247.7896" x2="398.663" y2="271.1472" gradientTransform="matrix(-1 0 0 1 637.5375 0)">
				<stop  offset="0" style="stop-color:#D3D5D5"/>
				<stop  offset="0.4789" style="stop-color:#FFFFFD"/>
				<stop  offset="0.8645" style="stop-color:#979B9F"/>
			</linearGradient>
			<path style="fill:url(#SVGID_00000085935113115918171090000010691398582930115236_);" d="M250.017,238.622
				c0,0-0.659-9.813,13.103-18.926c11.91-7.887,30.558-3.679,49.538,5.062l67.536,63.152
				c-33.119-11.661-73.913-24.061-107.316-7.688c-8.535,4.435-16.211,11.217-20.888,19.717c-0.766,1.458-1.416,2.843-1.973,4.117
				V238.622z"/>
			
				<linearGradient id="SVGID_00000077292491440523443350000000628480874452633234_" gradientUnits="userSpaceOnUse" x1="205.0731" y1="260.2945" x2="255.3414" y2="260.2945">
				<stop  offset="0" style="stop-color:#F4F4F2"/>
				<stop  offset="0.8224" style="stop-color:#6E7276"/>
				<stop  offset="1" style="stop-color:#222324"/>
			</linearGradient>
			<path style="fill:url(#SVGID_00000077292491440523443350000000628480874452633234_);" d="M210.938,247.71
				c0,0,39.032,8.535,39.032,30.895v-36.621L210.938,247.71z"/>
			
				<linearGradient id="SVGID_00000000940128405839821190000016289185882784335526_" gradientUnits="userSpaceOnUse" x1="322.9669" y1="263.542" x2="241.1857" y2="259.9037">
				<stop  offset="0" style="stop-color:#F4F4F2"/>
				<stop  offset="0.8224" style="stop-color:#6E7276"/>
				<stop  offset="1" style="stop-color:#222324"/>
			</linearGradient>
			<path style="fill:url(#SVGID_00000000940128405839821190000016289185882784335526_);" d="M287.228,248.35
				c0,0-37.258,7.895-37.258,30.255v-36.621L287.228,248.35z"/>
		</g>
		<g>
			
				<linearGradient id="SVGID_00000102508951670553657140000011272717973590060683_" gradientUnits="userSpaceOnUse" x1="250" y1="207.1142" x2="250" y2="259.8539">
				<stop  offset="0" style="stop-color:#241945"/>
				<stop  offset="0.9316" style="stop-color:#604883"/>
			</linearGradient>
			<path style="fill:url(#SVGID_00000102508951670553657140000011272717973590060683_);" d="M199.963,190.446v48.257
				c0,7.969,22.402,14.429,50.037,14.429c27.635,0,50.037-6.46,50.037-14.429v-48.257H199.963z"/>
			<g>
				
					<linearGradient id="SVGID_00000180365582157248539400000011618077040721049742_" gradientUnits="userSpaceOnUse" x1="177.1823" y1="185.6262" x2="249.2534" y2="214.6305">
					<stop  offset="0" style="stop-color:#604883"/>
					<stop  offset="0.9974" style="stop-color:#241945"/>
				</linearGradient>
				<polygon style="fill:url(#SVGID_00000180365582157248539400000011618077040721049742_);" points="250,207.592 250,213.052 
					173.881,191.636 173.881,186.177 				"/>
				
					<linearGradient id="SVGID_00000056419524684224867080000000016296361417108636_" gradientUnits="userSpaceOnUse" x1="253.6556" y1="208.1156" x2="329.5353" y2="189.3654">
					<stop  offset="0" style="stop-color:#604883"/>
					<stop  offset="0.9974" style="stop-color:#241945"/>
				</linearGradient>
				<polygon style="fill:url(#SVGID_00000056419524684224867080000000016296361417108636_);" points="250,207.592 250,213.052 
					326.119,191.636 326.119,186.177 				"/>
				
					<linearGradient id="SVGID_00000167395437897390565720000016101417487816668846_" gradientUnits="userSpaceOnUse" x1="236.1171" y1="221.1475" x2="259.262" y2="162.8459">
					<stop  offset="0" style="stop-color:#C394E8"/>
					<stop  offset="0.9974" style="stop-color:#241945"/>
				</linearGradient>
				<polygon style="fill:url(#SVGID_00000167395437897390565720000016101417487816668846_);" points="326.119,186.177 250,207.592 
					173.881,186.177 250,164.762 				"/>
			</g>
			<g>
				
					<linearGradient id="SVGID_00000124125556779630787240000015665932741984012956_" gradientUnits="userSpaceOnUse" x1="295.7614" y1="222.4877" x2="279.0405" y2="175.3656">
					<stop  offset="0" style="stop-color:#0062B8"/>
					<stop  offset="1" style="stop-color:#00B7E1"/>
				</linearGradient>
				
					<path style="fill:none;stroke:url(#SVGID_00000124125556779630787240000015665932741984012956_);stroke-width:1.0263;stroke-miterlimit:10;" d="
					M250,186.177l64.768,2.252c1.153,0.04,2.068,0.986,2.068,2.14v24.258"/>
				
					<linearGradient id="SVGID_00000088102886891745099780000000279519400407194550_" gradientUnits="userSpaceOnUse" x1="316.8361" y1="203.8381" x2="316.8361" y2="223.2003">
					<stop  offset="0" style="stop-color:#0062B8"/>
					<stop  offset="1" style="stop-color:#00B7E1"/>
				</linearGradient>
				<path style="fill:url(#SVGID_00000088102886891745099780000000279519400407194550_);" d="M316.836,201.883l-5.862,13.809
					c-0.324,0.763,0.236,1.61,1.066,1.61h9.593c0.829,0,1.39-0.847,1.066-1.61L316.836,201.883z"/>
				
					<linearGradient id="SVGID_00000088836828947006764230000001149140715891574934_" gradientUnits="userSpaceOnUse" x1="252.1749" y1="192.3062" x2="248.194" y2="181.0871">
					<stop  offset="0" style="stop-color:#0062B8"/>
					<stop  offset="1" style="stop-color:#00B7E1"/>
				</linearGradient>
				<path style="fill:url(#SVGID_00000088836828947006764230000001149140715891574934_);" d="M255.664,186.177
					c0,1.141-2.536,2.066-5.664,2.066c-3.128,0-5.664-0.925-5.664-2.066s2.536-2.067,5.664-2.067
					C253.128,184.11,255.664,185.036,255.664,186.177z"/>
			</g>
		</g>
	</g>
</g>
<g id="TEXTS">
	<g>
		<text transform="matrix(1 0 0 1 113.7373 367.4465)" style="font-family:'Rubik-Medium'; font-size:38.3568px;">Smith &amp; Taylor </text>
		<text transform="matrix(1 0 0 1 113.7373 367.4465)" style="fill:#FFFFFF; font-family:'Rubik-Medium'; font-size:38.3568px;">Smith &amp; Taylor </text>
	</g>
	<text transform="matrix(1 0 0 1 191.1021 391.8978)" style="fill:#00B7E1; font-family:'Rubik-Light'; font-size:17.7173px;">HIGH SCHOOL</text>
</g>
</svg>
